<?xml version="1.0" standalone="no"?>
<!DOCTYPE svg PUBLIC "-//W3C//DTD SVG 20010904//EN"
 "http://www.w3.org/TR/2001/REC-SVG-20010904/DTD/svg10.dtd">
<svg version="1.0" xmlns="http://www.w3.org/2000/svg"
 width="256.000000pt" height="256.000000pt" viewBox="0 0 256.000000 256.000000"
 preserveAspectRatio="xMidYMid meet">
<metadata>
Created by potrace 1.11, written by Peter Selinger 2001-2013
</metadata>
<g transform="translate(0.000000,256.000000) scale(0.100000,-0.100000)"
fill="#000000" stroke="none">
<path d="M1109 2549 c-560 -81 -998 -508 -1093 -1064 -20 -116 -14 -346 12
-465 72 -334 259 -612 537 -800 135 -91 309 -164 466 -195 94 -19 340 -28 409
-15 25 4 63 11 85 14 22 4 58 12 80 18 22 6 45 12 50 14 68 15 242 98 330 157
357 239 561 612 570 1042 14 624 -417 1158 -1033 1282 -88 17 -329 24 -413 12z"/>
</g>
</svg>
